Normalized EMG Linear Envelopes
nRows=230
nColumns=4

endheader
time	 med_gas_r	  soleus_r	 tib_ant_r	
6.81956	  0.030055	  0.081703	  0.004968	
6.85282	  0.028629	  0.081471	  0.005100	
6.88609	  0.027323	  0.081648	  0.005183	
6.91935	  0.026227	  0.082352	  0.005191	
6.95262	  0.025374	  0.083725	  0.005125	
6.98589	  0.024758	  0.085862	  0.005009	
7.01915	  0.024369	  0.088703	  0.004878	
7.05242	  0.024209	  0.091921	  0.004769	
7.08569	  0.024259	  0.094897	  0.004707	
7.11895	  0.024458	  0.096905	  0.004704	
7.15222	  0.024735	  0.097489	  0.004748	
7.18548	  0.025057	  0.096740	  0.004808	
7.21875	  0.025452	  0.095190	  0.004842	
7.25202	  0.025972	  0.093377	  0.004822	
7.28528	  0.026605	  0.091522	  0.004748	
7.31855	  0.027236	  0.089597	  0.004647	
7.35181	  0.027674	  0.087651	  0.004559	
7.38508	  0.027760	  0.085935	  0.004515	
7.41835	  0.027470	  0.084729	  0.004528	
7.45161	  0.026933	  0.084154	  0.004587	
7.48488	  0.026339	  0.084248	  0.004667	
7.51815	  0.025807	  0.085169	  0.004739	
7.55141	  0.025311	  0.087178	  0.004788	
7.58468	  0.024745	  0.090380	  0.004812	
7.61794	  0.024059	  0.094530	  0.004819	
7.65121	  0.023346	  0.099107	  0.004813	
7.68448	  0.022781	  0.103487	  0.004789	
7.71774	  0.022491	  0.107015	  0.004743	
7.75101	  0.022469	  0.109027	  0.004676	
7.78427	  0.022621	  0.109026	  0.004605	
7.81754	  0.022859	  0.106990	  0.004551	
7.85081	  0.023163	  0.103501	  0.004534	
7.88407	  0.023524	  0.099507	  0.004564	
7.91734	  0.023871	  0.095916	  0.004636	
7.9506	  0.024059	  0.093302	  0.004739	
7.98387	  0.023954	  0.091820	  0.004858	
8.01714	  0.023552	  0.091281	  0.004984	
8.0504	  0.023014	  0.091319	  0.005111	
8.08367	  0.022588	  0.091622	  0.005231	
8.11694	  0.022459	  0.092066	  0.005329	
8.1502	  0.022652	  0.092638	  0.005381	
8.18347	  0.023058	  0.093250	  0.005361	
8.21673	  0.023531	  0.093714	  0.005256	
8.25	  0.023969	  0.093906	  0.005059	
8.28327	  0.024301	  0.093890	  0.004785	
8.31653	  0.024462	  0.093801	  0.004466	
8.3498	  0.024420	  0.093654	  0.004160	
8.38306	  0.024250	  0.093370	  0.003965	
8.41633	  0.024160	  0.093002	  0.004011	
8.4496	  0.024396	  0.092817	  0.004451	
8.48286	  0.025080	  0.093070	  0.005454	
8.51613	  0.026158	  0.093688	  0.007208	
8.5494	  0.027511	  0.094272	  0.009921	
8.58266	  0.029129	  0.094394	  0.013768	
8.61593	  0.031125	  0.093867	  0.018718	
8.64919	  0.033529	  0.092712	  0.024324	
8.68246	  0.036056	  0.090977	  0.029679	
8.71573	  0.038129	  0.088686	  0.033716	
8.74899	  0.039231	  0.085992	  0.035738	
8.78226	  0.039310	  0.083329	  0.035807	
8.81552	  0.038885	  0.081346	  0.034690	
8.84879	  0.038758	  0.080666	  0.033366	
8.88206	  0.039567	  0.081667	  0.032494	
8.91532	  0.041521	  0.084415	  0.032140	
8.94859	  0.044455	  0.088788	  0.031910	
8.98185	  0.048122	  0.094774	  0.031321	
9.01512	  0.052447	  0.102801	  0.030190	
9.04839	  0.057597	  0.113769	  0.028778	
9.08165	  0.063839	  0.128596	  0.027627	
9.11492	  0.071293	  0.147481	  0.027192	
9.14819	  0.079732	  0.169474	  0.027563	
9.18145	  0.088541	  0.192753	  0.028440	
9.21472	  0.096881	  0.215383	  0.029345	
9.24798	  0.103990	  0.236078	  0.029900	
9.28125	  0.109537	  0.254554	  0.029992	
9.31452	  0.113849	  0.271457	  0.029764	
9.34778	  0.117854	  0.287957	  0.029478	
9.38105	  0.122659	  0.305172	  0.029348	
9.41431	  0.128951	  0.323557	  0.029430	
9.44758	  0.136513	  0.342516	  0.029615	
9.48085	  0.144201	  0.360446	  0.029726	
9.51411	  0.150425	  0.375352	  0.029641	
9.54738	  0.153932	  0.385852	  0.029379	
9.58065	  0.154425	  0.392015	  0.029081	
9.61391	  0.152613	  0.395390	  0.028941	
9.64718	  0.149771	  0.398039	  0.029113	
9.68044	  0.147178	  0.401229	  0.029671	
9.71371	  0.145767	  0.404888	  0.030597	
9.74698	  0.145972	  0.408308	  0.031795	
9.78024	  0.147634	  0.411306	  0.033118	
9.81351	  0.150025	  0.414570	  0.034399	
9.84677	  0.152149	  0.418958	  0.035485	
9.88004	  0.153235	  0.424727	  0.036269	
9.91331	  0.153088	  0.431581	  0.036721	
9.94657	  0.152057	  0.439246	  0.036909	
9.97984	  0.150698	  0.447694	  0.036974	
10.0131	  0.149417	  0.456841	  0.037075	
10.0464	  0.148349	  0.466373	  0.037301	
10.0796	  0.147480	  0.476021	  0.037624	
10.1129	  0.146838	  0.485794	  0.037926	
10.1462	  0.146557	  0.495730	  0.038104	
10.1794	  0.146799	  0.505485	  0.038175	
10.2127	  0.147650	  0.514379	  0.038275	
10.246	  0.149132	  0.521862	  0.038517	
10.2792	  0.151259	  0.527800	  0.038841	
10.3125	  0.154022	  0.532276	  0.038994	
10.3458	  0.157259	  0.535288	  0.038687	
10.379	  0.160608	  0.536898	  0.037807	
10.4123	  0.163670	  0.537760	  0.036512	
10.4456	  0.166338	  0.539272	  0.035148	
10.4788	  0.168941	  0.542810	  0.034085	
10.5121	  0.171976	  0.548552	  0.033582	
10.5454	  0.175581	  0.555073	  0.033736	
10.5786	  0.179241	  0.560309	  0.034483	
10.6119	  0.182070	  0.563134	  0.035640	
10.6452	  0.183450	  0.564231	  0.036972	
10.6784	  0.183465	  0.565616	  0.038261	
10.7117	  0.182756	  0.569376	  0.039374	
10.745	  0.182019	  0.576709	  0.040263	
10.7782	  0.181613	  0.587904	  0.040929	
10.8115	  0.181572	  0.602983	  0.041374	
10.8448	  0.181854	  0.622009	  0.041575	
10.878	  0.182530	  0.644392	  0.041517	
10.9113	  0.183748	  0.667822	  0.041242	
10.9446	  0.185564	  0.688239	  0.040890	
10.9778	  0.187778	  0.701446	  0.040660	
11.0111	  0.189867	  0.705123	  0.040705	
11.0444	  0.191082	  0.699525	  0.041037	
11.0776	  0.190721	  0.686508	  0.041514	
11.1109	  0.188488	  0.668062	  0.041941	
11.1442	  0.184712	  0.645617	  0.042192	
11.1774	  0.180261	  0.620369	  0.042263	
11.2107	  0.176195	  0.594100	  0.042219	
11.244	  0.173389	  0.569789	  0.042115	
11.2772	  0.172265	  0.551394	  0.041964	
11.3105	  0.172722	  0.542501	  0.041765	
11.3437	  0.174269	  0.544401	  0.041539	
11.377	  0.176337	  0.554943	  0.041325	
11.4103	  0.178607	  0.569248	  0.041161	
11.4435	  0.181138	  0.582025	  0.041059	
11.4768	  0.184124	  0.589890	  0.041005	
11.5101	  0.187478	  0.592174	  0.040952	
11.5433	  0.190614	  0.589967	  0.040826	
11.5766	  0.192636	  0.584554	  0.040543	
11.6099	  0.192788	  0.576532	  0.040055	
11.6431	  0.190776	  0.565951	  0.039390	
11.6764	  0.186787	  0.552938	  0.038659	
11.7097	  0.181375	  0.538258	  0.038038	
11.7429	  0.175429	  0.523731	  0.037701	
11.7762	  0.170140	  0.512290	  0.037744	
11.8095	  0.166750	  0.507153	  0.038132	
11.8427	  0.166088	  0.510085	  0.038718	
11.876	  0.168255	  0.519932	  0.039327	
11.9093	  0.172732	  0.532876	  0.039826	
11.9425	  0.178747	  0.544423	  0.040121	
11.9758	  0.185482	  0.551449	  0.040118	
12.0091	  0.191975	  0.552836	  0.039728	
12.0423	  0.197078	  0.548961	  0.038933	
12.0756	  0.199782	  0.541302	  0.037840	
12.1089	  0.199768	  0.532472	  0.036660	
12.1421	  0.197606	  0.525713	  0.035617	
12.1754	  0.194268	  0.523235	  0.034872	
12.2087	  0.190356	  0.524367	  0.034493	
12.2419	  0.185742	  0.525183	  0.034453	
12.2752	  0.179885	  0.520134	  0.034635	
12.3085	  0.172404	  0.504652	  0.034867	
12.3417	  0.163374	  0.477194	  0.034991	
12.375	  0.153235	  0.439840	  0.034934	
12.4083	  0.142558	  0.397397	  0.034715	
12.4415	  0.131885	  0.355539	  0.034388	
12.4748	  0.121669	  0.318943	  0.034005	
12.5081	  0.112256	  0.290329	  0.033623	
12.5413	  0.103858	  0.270535	  0.033324	
12.5746	  0.096520	  0.258985	  0.033162	
12.6079	  0.090105	  0.253962	  0.033071	
12.6411	  0.084386	  0.252893	  0.032827	
12.6744	  0.079218	  0.253230	  0.032169	
12.7077	  0.074640	  0.253624	  0.030981	
12.7409	  0.070806	  0.254187	  0.029390	
12.7742	  0.067804	  0.255254	  0.027655	
12.8075	  0.065561	  0.255839	  0.025968	
12.8407	  0.063902	  0.253654	  0.024325	
12.874	  0.062663	  0.246870	  0.022586	
12.9073	  0.061708	  0.235774	  0.020639	
12.9405	  0.060857	  0.222591	  0.018514	
12.9738	  0.059839	  0.209798	  0.016392	
13.0071	  0.058391	  0.198694	  0.014508	
13.0403	  0.056414	  0.189250	  0.013057	
13.0736	  0.054054	  0.180791	  0.012129	
13.1069	  0.051602	  0.172589	  0.011709	
13.1401	  0.049287	  0.164156	  0.011719	
13.1734	  0.047146	  0.155467	  0.012059	
13.2067	  0.045072	  0.147157	  0.012612	
13.2399	  0.042970	  0.140400	  0.013216	
13.2732	  0.040886	  0.136360	  0.013663	
13.3065	  0.038989	  0.135498	  0.013749	
13.3397	  0.037446	  0.137174	  0.013383	
13.373	  0.036301	  0.139786	  0.012628	
13.4062	  0.035453	  0.141379	  0.011667	
13.4395	  0.034724	  0.140418	  0.010701	
13.4728	  0.033975	  0.136325	  0.009869	
13.506	  0.033176	  0.129535	  0.009220	
13.5393	  0.032399	  0.121114	  0.008735	
13.5726	  0.031754	  0.112301	  0.008357	
13.6058	  0.031315	  0.104167	  0.008020	
13.6391	  0.031076	  0.097397	  0.007670	
13.6724	  0.030962	  0.092155	  0.007284	
13.7056	  0.030873	  0.088080	  0.006879	
13.7389	  0.030737	  0.084517	  0.006488	
13.7722	  0.030533	  0.080904	  0.006147	
13.8054	  0.030270	  0.077080	  0.005869	
13.8387	  0.029962	  0.073320	  0.005653	
13.872	  0.029616	  0.070134	  0.005497	
13.9052	  0.029246	  0.067982	  0.005396	
13.9385	  0.028865	  0.067115	  0.005337	
13.9718	  0.028460	  0.067543	  0.005297	
14.005	  0.027975	  0.069016	  0.005253	
14.0383	  0.027350	  0.070983	  0.005204	
14.0716	  0.026604	  0.072603	  0.005167	
14.1048	  0.025857	  0.073003	  0.005163	
14.1381	  0.025268	  0.071698	  0.005195	
14.1714	  0.024924	  0.068859	  0.005245	
14.2046	  0.024794	  0.065199	  0.005290	
14.2379	  0.024779	  0.061550	  0.005330	
14.2712	  0.024806	  0.058506	  0.005382	
14.3044	  0.024869	  0.056338	  0.005474	
14.3377	  0.024996	  0.055109	  0.005626	
14.371	  0.025201	  0.054771	  0.005843	
14.4042	  0.025459	  0.055180	  0.006114	
14.4375	  0.025735	  0.056084	  0.006412	
